<mxfile host="app.diagrams.net" modified="2024-01-26T07:58:47.058Z" agent="Mozilla/5.0 (Windows NT 10.0; Win64; x64) AppleWebKit/537.36 (KHTML, like Gecko) Chrome/120.0.0.0 Safari/537.36" etag="I8Z1Ze0TCHpM4sUVGy2f" version="22.1.16" type="github">
  <diagram name="第 1 页" id="GztoGZoLDA_IP8yJrQvN">
    <mxGraphModel dx="989" dy="1690" grid="1" gridSize="10" guides="1" tooltips="1" connect="1" arrows="1" fold="1" page="1" pageScale="1" pageWidth="827" pageHeight="1169" math="0" shadow="0">
      <root>
        <mxCell id="0" />
        <mxCell id="1" parent="0" />
        <mxCell id="jYttO9liqktZ8NMW96-u-7" style="edgeStyle=orthogonalEdgeStyle;rounded=0;orthogonalLoop=1;jettySize=auto;html=1;entryX=0;entryY=0.5;entryDx=0;entryDy=0;dashed=1;endArrow=none;endFill=0;" edge="1" parent="1" source="jYttO9liqktZ8NMW96-u-1" target="jYttO9liqktZ8NMW96-u-2">
          <mxGeometry relative="1" as="geometry" />
        </mxCell>
        <mxCell id="jYttO9liqktZ8NMW96-u-1" value="货币" style="rounded=0;whiteSpace=wrap;html=1;" vertex="1" parent="1">
          <mxGeometry x="220" y="170" width="120" height="60" as="geometry" />
        </mxCell>
        <mxCell id="jYttO9liqktZ8NMW96-u-3" style="edgeStyle=orthogonalEdgeStyle;rounded=0;orthogonalLoop=1;jettySize=auto;html=1;exitX=1;exitY=0.5;exitDx=0;exitDy=0;entryX=0;entryY=0.5;entryDx=0;entryDy=0;" edge="1" parent="1" source="jYttO9liqktZ8NMW96-u-2" target="jYttO9liqktZ8NMW96-u-4">
          <mxGeometry relative="1" as="geometry">
            <mxPoint x="559.9999999999998" y="220" as="targetPoint" />
            <mxPoint x="479.9999999999998" y="249.9999999999999" as="sourcePoint" />
          </mxGeometry>
        </mxCell>
        <mxCell id="jYttO9liqktZ8NMW96-u-2" value="资源" style="rounded=0;whiteSpace=wrap;html=1;" vertex="1" parent="1">
          <mxGeometry x="360" y="170" width="120" height="60" as="geometry" />
        </mxCell>
        <mxCell id="jYttO9liqktZ8NMW96-u-14" style="edgeStyle=orthogonalEdgeStyle;rounded=0;orthogonalLoop=1;jettySize=auto;html=1;exitX=1;exitY=0.5;exitDx=0;exitDy=0;entryX=0;entryY=0.5;entryDx=0;entryDy=0;" edge="1" parent="1" source="jYttO9liqktZ8NMW96-u-4" target="jYttO9liqktZ8NMW96-u-16">
          <mxGeometry relative="1" as="geometry">
            <mxPoint x="749.9999999999998" y="140" as="targetPoint" />
          </mxGeometry>
        </mxCell>
        <mxCell id="jYttO9liqktZ8NMW96-u-18" style="edgeStyle=orthogonalEdgeStyle;rounded=0;orthogonalLoop=1;jettySize=auto;html=1;exitX=1;exitY=0.5;exitDx=0;exitDy=0;entryX=0;entryY=0.5;entryDx=0;entryDy=0;" edge="1" parent="1" source="jYttO9liqktZ8NMW96-u-4" target="jYttO9liqktZ8NMW96-u-17">
          <mxGeometry relative="1" as="geometry" />
        </mxCell>
        <mxCell id="jYttO9liqktZ8NMW96-u-20" style="edgeStyle=orthogonalEdgeStyle;rounded=0;orthogonalLoop=1;jettySize=auto;html=1;exitX=1;exitY=0.5;exitDx=0;exitDy=0;entryX=0;entryY=0.5;entryDx=0;entryDy=0;" edge="1" parent="1" source="jYttO9liqktZ8NMW96-u-4" target="jYttO9liqktZ8NMW96-u-21">
          <mxGeometry relative="1" as="geometry">
            <mxPoint x="699.9999999999998" y="280" as="targetPoint" />
          </mxGeometry>
        </mxCell>
        <mxCell id="jYttO9liqktZ8NMW96-u-4" value="目的和用途" style="rounded=0;whiteSpace=wrap;html=1;" vertex="1" parent="1">
          <mxGeometry x="547" y="170" width="120" height="60" as="geometry" />
        </mxCell>
        <mxCell id="jYttO9liqktZ8NMW96-u-11" style="edgeStyle=orthogonalEdgeStyle;rounded=0;orthogonalLoop=1;jettySize=auto;html=1;exitX=1;exitY=0;exitDx=0;exitDy=0;entryX=0;entryY=0;entryDx=0;entryDy=0;curved=1;" edge="1" parent="1" source="jYttO9liqktZ8NMW96-u-9" target="jYttO9liqktZ8NMW96-u-10">
          <mxGeometry relative="1" as="geometry">
            <Array as="points">
              <mxPoint x="308" y="-40" />
              <mxPoint x="426" y="-40" />
            </Array>
          </mxGeometry>
        </mxCell>
        <mxCell id="jYttO9liqktZ8NMW96-u-9" value="来源" style="ellipse;whiteSpace=wrap;html=1;aspect=fixed;" vertex="1" parent="1">
          <mxGeometry x="240" y="-30" width="80" height="80" as="geometry" />
        </mxCell>
        <mxCell id="jYttO9liqktZ8NMW96-u-12" style="edgeStyle=orthogonalEdgeStyle;rounded=0;orthogonalLoop=1;jettySize=auto;html=1;exitX=0;exitY=1;exitDx=0;exitDy=0;entryX=1;entryY=1;entryDx=0;entryDy=0;curved=1;" edge="1" parent="1" source="jYttO9liqktZ8NMW96-u-10" target="jYttO9liqktZ8NMW96-u-9">
          <mxGeometry relative="1" as="geometry">
            <Array as="points">
              <mxPoint x="426" y="60" />
              <mxPoint x="308" y="60" />
            </Array>
          </mxGeometry>
        </mxCell>
        <mxCell id="jYttO9liqktZ8NMW96-u-10" value="消耗" style="ellipse;whiteSpace=wrap;html=1;aspect=fixed;" vertex="1" parent="1">
          <mxGeometry x="414" y="-30" width="80" height="80" as="geometry" />
        </mxCell>
        <mxCell id="jYttO9liqktZ8NMW96-u-16" value="升级" style="rounded=1;whiteSpace=wrap;html=1;" vertex="1" parent="1">
          <mxGeometry x="720" y="140" width="70" height="30" as="geometry" />
        </mxCell>
        <mxCell id="jYttO9liqktZ8NMW96-u-17" value="增强" style="rounded=1;whiteSpace=wrap;html=1;" vertex="1" parent="1">
          <mxGeometry x="720" y="210" width="70" height="30" as="geometry" />
        </mxCell>
        <mxCell id="jYttO9liqktZ8NMW96-u-21" value="修复" style="rounded=1;whiteSpace=wrap;html=1;" vertex="1" parent="1">
          <mxGeometry x="720" y="280" width="70" height="30" as="geometry" />
        </mxCell>
      </root>
    </mxGraphModel>
  </diagram>
</mxfile>
